# xmcd
#
# Track frame offsets: 
#        150
#        17400
#        36225
#        54600
#        70889
#        88739
#        106064
#        124289
#        142589
#        160964
#
# Disc length: 2414 seconds
#
# Revision: 0
# Processed by: cddbd v1.5.2PL0 Copyright (c) Steve Scherf et al.
# Submitted via: ExactAudioCopy v0.99pb1
#
DISCID=7d096c0a
DTITLE=Tai Orrathai - Special - Pasa Ruk Jark Dokyah
DYEAR=2007
DGENRE=Thai
TTITLE0=Kaew Ror Phee
TTITLE1=Aab Ruk Aab Kid Tung
TTITLE2=Talod Wela
TTITLE3=Sao Rum Wong
TTITLE4=Kid Hord Yung Luey
TTITLE5=Jark barn na duay ruk
TTITLE6=Tueng Dunk Yung Huang Mae
TTITLE7=Fah Sarng Tee Fung Khong
TTITLE8=Sao Ubol Ror Ruk
TTITLE9=Duay Jai Tee Ruk Kun
EXTD=
EXTT0=
EXTT1=
EXTT2=
EXTT3=
EXTT4=
EXTT5=
EXTT6=
EXTT7=
EXTT8=
EXTT9=
PLAYORDER=
